<svg xmlns="http://www.w3.org/2000/svg" viewBox="0 0 127.13 177.96"><defs><style>.cls-1{opacity:0.6;}.cls-2{fill:#f6b776;}</style></defs><g id="Capa_2" data-name="Capa 2"><g id="Layer_1" data-name="Layer 1"><g class="cls-1"><path class="cls-2" d="M51.35,72.6c14.91,1.22,36.42-1.71,36.42-21.27,0-14.42-11.49-22.73-24.2-22.73-17.35,0-26.64,13-26.4,30.56h-33C5.39,24.2,28.13,0,63.33,0c27.37,0,57.44,16.87,57.44,47.42,0,16.14-8.07,30.56-24,35v.49c18.82,4.15,30.31,19.8,30.31,38.86,0,35.94-30.07,56.23-63.56,56.23C25.19,178-.72,155,0,115.62H33c.73,18.58,10,33.74,30.06,33.74C78.73,149.36,91,138.6,91,122.47,91,96.56,68.22,97,51.35,97Z"/></g></g></g></svg>