<svg xmlns="http://www.w3.org/2000/svg" xmlns:xlink="http://www.w3.org/1999/xlink" viewBox="0 0 553.76 381.33"><defs><style>.cls-1{fill:#fad5b0;}</style></defs><g id="Capa_2" data-name="Capa 2"><g id="Layer_1" data-name="Layer 1"><path class="cls-1" d="M247.07.09C304.93.51,372.1,1,401,45.88c20.81,32.32-2,50.83,19.49,92.86,24.88,48.73,42.13,32.08,72.84,85.29,7.3,12.66,29.69,51.45,17.94,86.66C493.41,364.17,429.4,384.33,381.19,381c-64-4.46-62.36-47.64-132.85-60.85-53.83-10.08-66.21,10.1-140.17-2.17-42.68-7.07-76.56-13.23-91.68-42.1-13.61-26-7.52-61.77,7-85.18,20-32.41,44.66-22.59,68.47-53,30.48-39,5.35-74.57,31.38-108.2C146.59-.62,188.52-.32,247.07.09Z"/><image width="1170" height="746" transform="translate(0 11.25) scale(0.47)" xlink:href="../../../Servicio-de-manitas-a-domicilio1.png"/></g></g></svg>