<svg xmlns="http://www.w3.org/2000/svg" xmlns:xlink="http://www.w3.org/1999/xlink" viewBox="0 0 633.26 392.15"><defs><style>.cls-1,.cls-10{fill:none;}.cls-1,.cls-10,.cls-6,.cls-8{stroke:#fff;stroke-miterlimit:10;}.cls-1,.cls-6,.cls-8{stroke-width:3px;}.cls-2{fill:#f6b776;opacity:0.6;}.cls-3{clip-path:url(#clip-path);}.cls-4,.cls-6,.cls-8{fill:#606060;}.cls-4{opacity:0.15;}.cls-5{clip-path:url(#clip-path-2);}.cls-6{opacity:0.32;}.cls-7{clip-path:url(#clip-path-3);}.cls-8{opacity:0.24;}.cls-9{clip-path:url(#clip-path-4);}.cls-10{stroke-width:5px;}</style><clipPath id="clip-path" transform="translate(52.62)"><rect class="cls-1" x="1.5" y="152.7" width="130.14" height="130.14" rx="17.6"/></clipPath><clipPath id="clip-path-2" transform="translate(52.62)"><rect class="cls-1" x="251.39" y="152.7" width="130.14" height="130.14" rx="17.6"/></clipPath><clipPath id="clip-path-3" transform="translate(52.62)"><rect class="cls-1" x="391.79" y="152.7" width="130.14" height="130.14" rx="17.6"/></clipPath><clipPath id="clip-path-4" transform="translate(52.62)"><rect class="cls-1" x="95.29" y="120.46" width="194.53" height="194.53" rx="17.6"/></clipPath><image id="image" width="960" height="640" xlink:href="../../../wellness-285590_960_720.jpg"/></defs><g id="Capa_2" data-name="Capa 2"><g id="Layer_1" data-name="Layer 1"><path class="cls-2" d="M163.43,9.43C209-7.29,257.87-2.7,281.66,30.69c19.35,27.15,18.83,55.6,40.24,95.49a104,104,0,0,0,13.78,20c11.09,12.55,24.18,23.07,57.47,39.09a598.46,598.46,0,0,0,69.12,28.05,116.18,116.18,0,0,1,32.09,17.1,91.93,91.93,0,0,1,13.9,12.6,90.88,90.88,0,0,1,16.53,27.17c7.28,17.67,9.42,39.63,5.16,54.35-11.1,38.34-73.74,55.62-118.42,56.91-71.87,2.07-79.12-38.14-141.3-34.81-67.6,3.62-81.61,51.55-143,44.82-3.55-.39-58.21-7.2-86.36-50.08-25.79-39.29-14-85.48.69-139.35C61.36,129.13,86.21,37.81,163.43,9.43Z" transform="translate(52.62)"/><g class="cls-3"><use transform="translate(13.92 147.95) scale(0.23)" xlink:href="#image"/><image width="1920" height="1280" transform="translate(0 144.52) scale(0.11)" xlink:href="../../../carpinteria.png"/><rect class="cls-4" x="25.42" y="144.19" width="219.76" height="146.5"/></g><rect class="cls-1" x="54.12" y="152.7" width="130.14" height="130.14" rx="17.6"/><g class="cls-5"><use transform="translate(263.81 147.95) scale(0.23)" xlink:href="#image"/><rect class="cls-6" x="263.81" y="147.95" width="219.76" height="146.5"/></g><rect class="cls-1" x="304.01" y="152.7" width="130.14" height="130.14" rx="17.6"/><g class="cls-7"><image width="500" height="333" transform="translate(427.88 152.46) scale(0.39)" xlink:href="../../../88e1da2f39a29f0166d68233b1c5f03d.jpg"/><rect class="cls-8" x="412.01" y="146.41" width="219.76" height="146.5"/></g><rect class="cls-1" x="444.41" y="152.7" width="130.14" height="130.14" rx="17.6"/><g class="cls-9"><image width="1024" height="680" transform="translate(81.51 120.46) scale(0.29)" xlink:href="../../../tips-de-como-debe-promocionarse-online-una-empresa-de-fontaneria-1024x680.jpg"/></g><rect class="cls-1" x="147.91" y="120.46" width="194.53" height="194.53" rx="17.6"/><rect class="cls-10" x="137.4" y="109.67" width="215.55" height="215.55" rx="25.46"/></g></g></svg>