<svg xmlns="http://www.w3.org/2000/svg" viewBox="0 0 20.83 21.09"><defs><style>.cls-1{fill:#363639;}</style></defs><title>Asset 57</title><g id="Layer_2" data-name="Layer 2"><g id="Layer_1-2" data-name="Layer 1"><path class="cls-1" d="M16.32,0H4.51A4.51,4.51,0,0,0,0,4.51v7.12a4.52,4.52,0,0,0,4.51,4.52h4L9,21.09l3.21-7H4.51a2.43,2.43,0,0,1-2.43-2.43V4.51A2.43,2.43,0,0,1,4.51,2.08H16.32a2.43,2.43,0,0,1,2.43,2.43v7.12a2.43,2.43,0,0,1-2.43,2.43h-3v2.09h3a4.52,4.52,0,0,0,4.51-4.52V4.51A4.51,4.51,0,0,0,16.32,0Z"/></g></g></svg>