<svg xmlns="http://www.w3.org/2000/svg" viewBox="0 0 43.92 43.92"><defs><style>.cls-1{fill:#313139;stroke:#313139;stroke-miterlimit:10;stroke-width:0.25px;}</style></defs><g id="Capa_2" data-name="Capa 2"><g id="Layer_1" data-name="Layer 1"><path class="cls-1" d="M25.92,28.74a8.07,8.07,0,1,0-7.87,0C14.57,31,9.49,35,8.47,39.11c.35.27.71.54,1.08.8h0l.08.06.35.22.55.36h0l.29.18.25.15c.37.21.74.41,1.12.6l.2.1c.42.21.86.4,1.3.59l.3.11c.4.16.82.31,1.24.45l.16.05c.46.15.93.28,1.4.39l.33.08c.45.1.9.19,1.37.26l.1,0c.49.08,1,.13,1.48.18l.36,0c.5,0,1,.06,1.52.06s1,0,1.52-.06l.36,0c.5-.05,1-.1,1.48-.18l.1,0c.46-.07.92-.16,1.37-.26l.33-.08c.47-.11.94-.24,1.4-.39l.16-.05c.42-.14.83-.29,1.24-.45l.29-.11c.45-.19.88-.38,1.31-.59l.19-.1c.38-.19.76-.39,1.13-.6l.25-.15.28-.18h0c.18-.11.35-.23.52-.35l.37-.23.08-.06h0c.39-.27.77-.55,1.15-.85C34.47,34.91,29.39,31,25.92,28.74ZM22,17.68a4,4,0,1,1-4,4A4,4,0,0,1,22,17.68Zm7,20.66-.25.1c-.41.17-.83.32-1.26.46-.17.06-.35.1-.53.15-.35.1-.69.19-1,.27l-.58.12c-.37.07-.74.13-1.11.17l-.53.07c-.55,0-1.1.08-1.66.08h0c-.56,0-1.11,0-1.66-.08l-.52-.07c-.37,0-.74-.1-1.11-.17-.19,0-.39-.07-.58-.12-.35-.08-.7-.17-1-.27-.18,0-.36-.09-.54-.15-.42-.14-.84-.29-1.26-.46l-.24-.1a14.18,14.18,0,0,1-1.3-.63A33,33,0,0,1,22,31.05a33.4,33.4,0,0,1,8.28,6.63C29.84,37.92,29.38,38.14,28.92,38.34Z"/><path class="cls-1" d="M43.1,16.51a20.31,20.31,0,0,0-.64-2.05,19.84,19.84,0,0,0-.83-2,21.83,21.83,0,0,0-39.35,0c-.31.64-.58,1.29-.83,2S1,15.81.81,16.51A21.76,21.76,0,0,0,.12,22c0,.61,0,1.22.09,1.82,0,.08,0,.16,0,.24.06.57.14,1.13.23,1.69L.51,26c.1.55.22,1.1.37,1.64a2.17,2.17,0,0,0,.07.24c.15.55.33,1.1.53,1.64,0,0,0,.05,0,.07.21.54.43,1.08.68,1.6l0,.12c.25.51.51,1,.8,1.5a2,2,0,0,0,.11.2c.28.48.58,1,.9,1.4l.13.18c.33.47.67.92,1,1.35l0,0A12.11,12.11,0,0,1,7.34,32.1a.25.25,0,0,1,0-.07c-.12-.17-.23-.35-.34-.52s-.33-.52-.48-.79-.22-.39-.32-.59-.28-.57-.42-.86l-.24-.54c-.19-.46-.36-.93-.52-1.41,0-.13-.07-.26-.1-.39a11.61,11.61,0,0,1-.3-1.16c0-.18-.08-.36-.11-.54-.07-.37-.13-.75-.17-1.12,0-.17,0-.34-.06-.51,0-.54-.08-1.09-.08-1.64a17.53,17.53,0,0,1,.36-3.58A17.83,17.83,0,0,1,22,4.16h0A17.83,17.83,0,0,1,39.4,18.38,17.53,17.53,0,0,1,39.76,22c0,.55,0,1.1-.08,1.64l-.06.5c0,.38-.1.76-.17,1.13,0,.18-.07.36-.11.54-.09.39-.19.78-.3,1.16,0,.13-.07.26-.11.39a14,14,0,0,1-.52,1.41c-.07.18-.16.36-.24.54s-.27.58-.41.86l-.32.59-.48.79c-.12.17-.22.35-.34.52a.25.25,0,0,0,0,.07A12.51,12.51,0,0,1,38.69,36l0,0c.36-.43.71-.88,1-1.35l.13-.18c.31-.45.61-.92.9-1.4a2,2,0,0,1,.11-.2c.28-.49.55-1,.79-1.5l.06-.12c.24-.52.47-1.06.67-1.6l0-.07c.2-.54.37-1.09.53-1.64,0-.08.05-.16.07-.24.14-.54.27-1.09.37-1.64a2.93,2.93,0,0,0,.05-.29c.1-.56.18-1.12.23-1.69,0-.08,0-.16,0-.24,0-.6.08-1.21.08-1.82A21.76,21.76,0,0,0,43.1,16.51Z"/></g></g></svg>