<svg xmlns="http://www.w3.org/2000/svg" viewBox="0 0 43.67 43.67"><defs><style>.cls-1{fill:#f6b776;}</style></defs><g id="Capa_2" data-name="Capa 2"><g id="Layer_1" data-name="Layer 1"><path class="cls-1" d="M25.79,28.62a8.07,8.07,0,1,0-7.87,0C14.44,30.91,9.36,34.83,8.34,39c.36.28.72.54,1.08.8h0l.08.05.34.22c.19.12.36.25.55.36h0l.28.19.25.14c.37.21.75.42,1.13.61l.19.1c.43.21.87.4,1.31.58l.29.12c.41.16.82.31,1.24.44l.16.06c.46.14.93.27,1.4.39l.33.07c.45.1.91.2,1.37.27l.1,0c.49.07,1,.13,1.48.17l.36,0c.5,0,1,.06,1.52.06s1,0,1.53-.06l.35,0c.5,0,1-.1,1.48-.17l.11,0c.46-.07.91-.17,1.36-.27l.33-.07c.47-.12.94-.25,1.4-.39l.17-.06c.41-.13.83-.28,1.23-.44l.3-.12c.44-.18.88-.37,1.3-.58l.2-.1c.38-.19.75-.4,1.12-.61l.25-.14.29-.19h0l.52-.34.37-.24.08-.05h0c.4-.27.78-.56,1.15-.85C34.34,34.78,29.26,30.87,25.79,28.62ZM21.84,17.55a4,4,0,1,1-4,4A4,4,0,0,1,21.84,17.55Zm7,20.67-.24.09c-.41.17-.84.33-1.26.46l-.54.16c-.34.1-.69.19-1,.27l-.58.12c-.37.07-.74.12-1.11.17l-.52.06c-.55.05-1.1.09-1.66.09h0c-.56,0-1.11,0-1.66-.09-.18,0-.35,0-.53-.06-.37-.05-.74-.1-1.1-.17L18,39.2c-.35-.08-.69-.17-1-.27l-.53-.16c-.43-.13-.85-.29-1.26-.46l-.25-.09c-.44-.19-.87-.41-1.3-.63a33,33,0,0,1,8.3-6.66,33.06,33.06,0,0,1,8.29,6.63C29.71,37.8,29.26,38,28.79,38.22Z"/><path class="cls-1" d="M43,16.38c-.18-.69-.4-1.38-.64-2s-.52-1.32-.83-1.95a21.82,21.82,0,0,0-39.35,0,19.67,19.67,0,0,0-.83,1.95,21.14,21.14,0,0,0-.64,2A21.82,21.82,0,0,0,0,21.83c0,.62,0,1.22.08,1.82,0,.08,0,.16,0,.24,0,.57.13,1.14.23,1.69,0,.1,0,.2,0,.3.11.55.23,1.09.37,1.63,0,.08.05.16.07.24.16.56.33,1.11.53,1.64l0,.08c.2.54.43,1.07.67,1.59l.06.12c.24.52.51,1,.79,1.51l.12.2c.28.47.58.94.9,1.4l.12.18c.33.46.68.91,1,1.35l0,0A12.62,12.62,0,0,1,7.21,32a.21.21,0,0,0,0-.06c-.12-.17-.22-.35-.34-.53l-.48-.79C6.24,30.4,6.14,30.2,6,30s-.29-.58-.42-.87-.17-.35-.24-.53c-.19-.47-.37-.94-.52-1.42,0-.12-.07-.25-.11-.38q-.17-.57-.3-1.17c0-.18-.07-.36-.1-.54-.07-.37-.13-.74-.18-1.12l-.06-.5C4.06,22.93,4,22.39,4,21.83a18.42,18.42,0,0,1,.36-3.58A17.84,17.84,0,0,1,21.83,4h0a17.83,17.83,0,0,1,17.81,17.8c0,.56,0,1.1-.09,1.65,0,.17,0,.33-.06.5,0,.38-.1.75-.17,1.12,0,.18-.07.36-.11.54a11.13,11.13,0,0,1-.3,1.17c0,.13-.06.26-.1.38-.16.48-.33.95-.52,1.42l-.24.53q-.19.43-.42.87l-.32.58c-.15.27-.31.53-.48.79s-.22.36-.34.53l0,.06a12.21,12.21,0,0,1,2.11,3.87l0,0c.36-.44.7-.89,1-1.35l.13-.18c.32-.46.62-.93.9-1.4l.12-.2c.28-.49.54-1,.79-1.51l0-.12c.25-.52.47-1,.68-1.59a.24.24,0,0,0,0-.08c.2-.53.38-1.08.53-1.64a2.17,2.17,0,0,0,.07-.24c.15-.54.27-1.08.37-1.63l.06-.3c.09-.55.17-1.12.23-1.69,0-.08,0-.16,0-.24.05-.6.09-1.2.09-1.82A21.82,21.82,0,0,0,43,16.38Z"/></g></g></svg>